<svg width="465" height="435" viewBox="0 0 465 435" fill="none" xmlns="http://www.w3.org/2000/svg">
<g clip-path="url(#clip0)">
<path d="M443.026 122.256H464.126V101.156H443.026V122.256Z" fill="#F1F2F2"/>
<path d="M408.919 122.256H430.019V101.156H408.919V122.256Z" fill="#F1F2F2"/>
<path d="M374.912 122.256H396.012V101.156H374.912V122.256Z" fill="#F1F2F2"/>
<path d="M340.804 122.256H361.904V101.156H340.804V122.256Z" fill="#F1F2F2"/>
<path d="M306.796 122.256H327.896V101.156H306.796V122.256Z" fill="#F1F2F2"/>
<path d="M272.789 122.256H293.889V101.156H272.789V122.256Z" fill="#F1F2F2"/>
<path d="M238.681 122.256H259.781V101.156H238.681V122.256Z" fill="#F1F2F2"/>
<path d="M443.026 88.5366H464.126V67.4366H443.026V88.5366Z" fill="#F1F2F2"/>
<path d="M408.919 88.5366H430.019V67.4366H408.919V88.5366Z" fill="#F1F2F2"/>
<path d="M374.912 88.5366H396.012V67.4366H374.912V88.5366Z" fill="#F1F2F2"/>
<path d="M340.804 88.5366H361.904V67.4366H340.804V88.5366Z" fill="#F1F2F2"/>
<path d="M306.796 88.5366H327.896V67.4366H306.796V88.5366Z" fill="#F1F2F2"/>
<path d="M272.789 88.5366H293.889V67.4366H272.789V88.5366Z" fill="#F1F2F2"/>
<path d="M238.681 88.5366H259.781V67.4366H238.681V88.5366Z" fill="#F1F2F2"/>
<path d="M443.026 54.8169H464.126V33.7169H443.026V54.8169Z" fill="#F1F2F2"/>
<path d="M408.919 54.8169H430.019V33.7169H408.919V54.8169Z" fill="#F1F2F2"/>
<path d="M374.912 54.8169H396.012V33.7169H374.912V54.8169Z" fill="#F1F2F2"/>
<path d="M340.804 54.8169H361.904V33.7169H340.804V54.8169Z" fill="#F1F2F2"/>
<path d="M306.796 54.8169H327.896V33.7169H306.796V54.8169Z" fill="#F1F2F2"/>
<path d="M272.789 54.8169H293.889V33.7169H272.789V54.8169Z" fill="#F1F2F2"/>
<path d="M238.681 54.8169H259.781V33.7169H238.681V54.8169Z" fill="#F1F2F2"/>
<path d="M443.026 21.0974L464.126 21.0974V-0.00258827L443.026 -0.00258827V21.0974Z" fill="#F1F2F2"/>
<path d="M408.919 21.0974L430.019 21.0974V-0.00258827L408.919 -0.00258827V21.0974Z" fill="#F1F2F2"/>
<path d="M374.912 21.0974L396.012 21.0974V-0.00258827L374.912 -0.00258827V21.0974Z" fill="#F1F2F2"/>
<path d="M340.804 21.0974L361.904 21.0974V-0.00258827L340.804 -0.00258827V21.0974Z" fill="#F1F2F2"/>
<path d="M306.796 21.0974L327.896 21.0974V-0.00258827L306.796 -0.00258827V21.0974Z" fill="#F1F2F2"/>
<path d="M272.789 21.0974L293.889 21.0974V-0.00258827L272.789 -0.00258827V21.0974Z" fill="#F1F2F2"/>
<path d="M238.681 21.0974L259.781 21.0974V-0.00258827L238.681 -0.00258827V21.0974Z" fill="#F1F2F2"/>
<path d="M204.343 122.256H225.443V101.156H204.343V122.256Z" fill="#F1F2F2"/>
<path d="M170.235 122.256H191.335V101.156H170.235V122.256Z" fill="#F1F2F2"/>
<path d="M136.228 122.256H157.328V101.156H136.228V122.256Z" fill="#F1F2F2"/>
<path d="M102.12 122.256H123.22V101.156H102.12V122.256Z" fill="#F1F2F2"/>
<path d="M68.1124 122.256H89.2124V101.156H68.1124V122.256Z" fill="#F1F2F2"/>
<path d="M34.0045 122.256H55.1045V101.156H34.0045V122.256Z" fill="#F1F2F2"/>
<path d="M-0.00283241 122.256H21.0972L21.0972 101.156H-0.00283241L-0.00283241 122.256Z" fill="#F1F2F2"/>
<path d="M204.343 88.5366H225.443V67.4366H204.343V88.5366Z" fill="#F1F2F2"/>
<path d="M170.235 88.5366H191.335V67.4366H170.235V88.5366Z" fill="#F1F2F2"/>
<path d="M136.228 88.5366H157.328V67.4366H136.228V88.5366Z" fill="#F1F2F2"/>
<path d="M102.12 88.5366H123.22V67.4366H102.12V88.5366Z" fill="#F1F2F2"/>
<path d="M68.1124 88.5366H89.2124V67.4366H68.1124V88.5366Z" fill="#F1F2F2"/>
<path d="M34.0045 88.5366H55.1045V67.4366H34.0045V88.5366Z" fill="#F1F2F2"/>
<path d="M-0.00283241 88.5366H21.0972L21.0972 67.4366H-0.00283241L-0.00283241 88.5366Z" fill="#F1F2F2"/>
<path d="M204.343 54.8169H225.443V33.7169H204.343V54.8169Z" fill="#F1F2F2"/>
<path d="M170.235 54.8169H191.335V33.7169H170.235V54.8169Z" fill="#F1F2F2"/>
<path d="M136.228 54.8169H157.328V33.7169H136.228V54.8169Z" fill="#F1F2F2"/>
<path d="M102.12 54.8169H123.22V33.7169H102.12V54.8169Z" fill="#F1F2F2"/>
<path d="M68.1124 54.8169H89.2124V33.7169H68.1124V54.8169Z" fill="#F1F2F2"/>
<path d="M34.0045 54.8169H55.1045V33.7169H34.0045V54.8169Z" fill="#F1F2F2"/>
<path d="M-0.00283241 54.8169H21.0972L21.0972 33.7169H-0.00283241L-0.00283241 54.8169Z" fill="#F1F2F2"/>
<path d="M204.343 21.0974L225.443 21.0974V-0.00258827L204.343 -0.00258827V21.0974Z" fill="#F1F2F2"/>
<path d="M170.235 21.0974L191.335 21.0974V-0.00258827L170.235 -0.00258827V21.0974Z" fill="#F1F2F2"/>
<path d="M136.228 21.0974L157.328 21.0974V-0.00258827L136.228 -0.00258827V21.0974Z" fill="#F1F2F2"/>
<path d="M102.12 21.0974L123.22 21.0974V-0.00258827L102.12 -0.00258827V21.0974Z" fill="#F1F2F2"/>
<path d="M68.1124 21.0974L89.2124 21.0974V-0.00258827L68.1124 -0.00258827V21.0974Z" fill="#F1F2F2"/>
<path d="M34.0045 21.0974L55.1045 21.0974V-0.00258827L34.0045 -0.00258827V21.0974Z" fill="#F1F2F2"/>
<path d="M-0.00283241 21.0974L21.0972 21.0974L21.0972 -0.00258827L-0.00283241 -0.00258827L-0.00283241 21.0974Z" fill="#F1F2F2"/>
<path d="M373.815 372.432C452.7 293.546 452.7 165.648 373.815 86.7632C294.929 7.87807 167.031 7.87807 88.1462 86.7632C9.26106 165.648 9.26106 293.546 88.1462 372.432C167.031 451.317 294.929 451.317 373.815 372.432Z" fill="white"/>
<path d="M231 434.3C225.9 434.3 220.7 434.1 215.6 433.7C214.1 433.6 213 432.3 213.1 430.8C213.2 429.3 214.5 428.2 216 428.3C221 428.7 226 428.9 231 428.9C252.1 428.9 272.8 425.6 292.7 419.2C293.7 418.9 294.8 419.2 295.5 419.9C295.6 418.9 296.3 417.9 297.3 417.6C310.6 412.9 323.5 406.7 335.6 399.3C336.9 398.5 338.6 398.9 339.3 400.2C340.1 401.5 339.7 403.2 338.4 403.9C326 411.6 312.8 417.9 299.1 422.7C298 423.1 296.9 422.8 296.2 422C296.1 423.1 295.4 424 294.3 424.3C273.9 431 252.6 434.3 231 434.3ZM173.4 426C173.1 426 172.9 426 172.6 425.9C171 425.4 169.4 424.9 167.8 424.4C166.4 423.9 165.6 422.4 166.1 421C166.6 419.6 168.1 418.8 169.5 419.3C171 419.8 172.6 420.3 174.2 420.8C175.6 421.2 176.5 422.7 176 424.2C175.7 425.2 174.6 426 173.4 426ZM100.3 386.4C99.6998 386.4 99.0998 386.2 98.4998 385.8C87.3998 376.4 77.2998 365.7 68.3998 354.2C67.6998 353.3 67.6998 352.1 68.1998 351.2C67.1998 351.4 66.0998 351.1 65.3998 350.1C49.5998 328.4 38.2998 304.2 31.9998 278.1C31.5998 276.6 32.4998 275.2 33.9998 274.8C35.4998 274.4 36.8998 275.3 37.2998 276.8C43.4998 302.1 54.3998 325.7 69.7998 346.8C70.3998 347.7 70.4998 348.8 69.9998 349.7C70.9998 349.5 72.0998 349.8 72.7998 350.7C81.3998 361.9 91.2998 372.3 102.1 381.5C103.2 382.5 103.4 384.2 102.4 385.3C101.8 386 101.1 386.4 100.3 386.4ZM394.4 351C393.8 351 393.3 350.8 392.8 350.5C391.6 349.6 391.3 347.9 392.2 346.7C393.2 345.4 394.1 344 395 342.7C395.9 341.5 397.5 341.2 398.8 342C400 342.9 400.3 344.5 399.5 345.8C398.5 347.2 397.6 348.6 396.6 349.9C396.1 350.7 395.3 351 394.4 351ZM417.9 309.2C417.6 309.2 417.2 309.1 416.9 309C415.5 308.4 414.8 306.8 415.4 305.5C425.3 281.5 430.3 256 430.3 229.7V229.3C430.3 228.2 430.9 227.3 431.9 226.8C431 226.4 430.3 225.5 430.2 224.4C429.8 210.2 427.9 196 424.6 182.3C424.2 180.8 425.1 179.4 426.6 179C428.1 178.6 429.5 179.5 429.9 181C433.3 195.1 435.3 209.6 435.7 224.2C435.7 225.3 435.1 226.3 434.1 226.7C435.1 227.1 435.8 228.1 435.8 229.2V229.7C435.8 256.6 430.6 282.8 420.5 307.5C419.9 308.5 418.9 309.2 417.9 309.2ZM29.0998 237.5C27.5998 237.5 26.3998 236.3 26.3998 234.8C26.3998 233.1 26.2998 231.4 26.2998 229.8C26.2998 228.3 27.4998 227.1 28.9998 227.1C30.4998 227.1 31.6998 228.3 31.6998 229.8C31.6998 231.4 31.6998 233.1 31.7998 234.7C31.7998 236.3 30.5998 237.5 29.0998 237.5ZM43.9998 155.7C43.6998 155.7 43.2998 155.6 42.9998 155.5C41.5998 154.9 40.8998 153.3 41.4998 152C46.9998 138.6 53.9998 125.6 62.2998 113.6C62.8998 112.7 63.9998 112.3 65.0998 112.5C64.5998 111.6 64.5998 110.4 65.1998 109.5C80.9998 87.8 100.5 69.6 123.3 55.5C124.6 54.7 126.3 55.1 127 56.4C127.8 57.7 127.4 59.4 126.1 60.1C104 73.8 84.9998 91.5 69.5998 112.7C68.9998 113.6 67.8998 114 66.8998 113.8C67.3998 114.7 67.3998 115.8 66.7998 116.7C58.6998 128.4 51.8998 141 46.4998 154C46.0998 155.1 45.0998 155.7 43.9998 155.7ZM394.2 113.3C393.4 113.3 392.5 112.9 392 112.2C391 110.9 390.1 109.6 389.1 108.3C388.2 107.1 388.4 105.4 389.6 104.5C390.8 103.6 392.5 103.8 393.4 105C394.4 106.3 395.4 107.7 396.4 109C397.3 110.2 397 111.9 395.8 112.8C395.3 113.1 394.7 113.3 394.2 113.3ZM361.5 78.2C360.9 78.2 360.3 78 359.7 77.6C339.7 60.7 317 48 292.2 40C291.2 39.7 290.5 38.8 290.3 37.7C289.6 38.5 288.5 38.8 287.5 38.5C273.9 34.5 259.9 31.9 245.7 30.9C244.2 30.8 243.1 29.5 243.2 28C243.3 26.5 244.6 25.4 246.1 25.5C260.7 26.6 275.1 29.2 289 33.3C290.1 33.6 290.8 34.5 290.9 35.6C291.6 34.8 292.7 34.5 293.8 34.8C319.3 43 342.6 56 363.1 73.4C364.2 74.4 364.4 76.1 363.4 77.2C363 77.8 362.3 78.2 361.5 78.2ZM163.6 41.9C162.5 41.9 161.4 41.2 161 40.1C160.5 38.7 161.2 37.1 162.7 36.6C164.3 36 165.9 35.5 167.5 35C168.9 34.5 170.5 35.3 170.9 36.7C171.4 38.1 170.6 39.7 169.2 40.1C167.6 40.6 166.1 41.1 164.6 41.7C164.2 41.8 163.9 41.9 163.6 41.9Z" fill="#3F2241"/>
<path d="M232.3 419.6C230.8 419.6 229.6 418.4 229.6 416.9C229.6 415.4 230.8 414.2 232.3 414.2C235.6 414.2 239 414.1 242.2 413.9C243.7 413.8 245 415 245.1 416.5C245.1 416.6 245.1 416.6 245.1 416.7C245.1 418.1 244 419.3 242.5 419.4C239.2 419.4 235.7 419.5 232.3 419.6ZM222.2 419.4H222.1C218.7 419.2 215.3 419 211.9 418.7C210.5 418.6 209.5 417.4 209.5 416C209.5 415.9 209.5 415.8 209.5 415.7C209.6 414.2 211 413.1 212.5 413.3C215.8 413.6 219.1 413.9 222.4 414C223.8 414.1 225 415.3 225 416.7V416.8C224.9 418.2 223.7 419.4 222.2 419.4ZM252.5 418.4C251.1 418.4 250 417.4 249.8 416C249.8 415.9 249.8 415.8 249.8 415.7C249.8 414.3 250.8 413.2 252.2 413C255.5 412.6 258.8 412.2 262 411.6C263.5 411.4 264.9 412.4 265.1 413.8C265.1 413.9 265.1 414.1 265.1 414.2C265.1 415.5 264.2 416.7 262.8 416.9C259.4 417.5 256 418 252.7 418.3C252.7 418.3 252.6 418.4 252.5 418.4ZM202.1 417.4C202 417.4 201.8 417.4 201.7 417.4C198.3 416.9 194.9 416.3 191.6 415.6C190.3 415.3 189.4 414.2 189.4 412.9C189.4 412.7 189.4 412.5 189.5 412.4C189.8 411 191.3 410 192.7 410.3C195.9 411 199.2 411.6 202.5 412.1C203.8 412.3 204.8 413.5 204.8 414.8C204.8 414.9 204.8 415.1 204.8 415.2C204.6 416.4 203.5 417.4 202.1 417.4ZM272.4 415C271.1 415 270 414.1 269.7 412.9C269.7 412.7 269.6 412.5 269.6 412.3C269.6 411 270.5 409.9 271.7 409.7C274.9 409 278.2 408.1 281.3 407.2C281.5 407.1 281.8 407.1 282 407.1C283.2 407.1 284.3 407.9 284.6 409.1C284.7 409.3 284.7 409.6 284.7 409.8C284.7 411 283.9 412.1 282.7 412.4C279.4 413.3 276.1 414.2 272.8 414.9C272.8 415 272.6 415 272.4 415ZM182.4 413.2C182.2 413.2 181.9 413.2 181.7 413.1C178.4 412.2 175.1 411.2 171.9 410.2C170.8 409.8 170 408.8 170 407.6C170 407.3 170 407 170.1 406.8C170.5 405.7 171.5 404.9 172.7 404.9C173 404.9 173.3 404.9 173.5 405C176.6 406 179.8 407 183 407.8C184.2 408.1 185 409.2 185 410.4C185 410.6 185 410.9 184.9 411.1C184.7 412.4 183.6 413.2 182.4 413.2ZM291.8 409.5C290.6 409.5 289.6 408.8 289.2 407.7C289.1 407.4 289.1 407.1 289.1 406.8C289.1 405.6 289.8 404.6 290.9 404.2C290.9 404.2 290.9 404.2 291 404.2C294.1 403.1 297.2 402 300.3 400.7C300.6 400.6 301 400.5 301.3 400.5C302.4 400.5 303.4 401.2 303.8 402.2C303.9 402.5 304 402.9 304 403.2C304 404.3 303.3 405.3 302.3 405.7C299.1 407 295.9 408.2 292.7 409.3C292.4 409.4 292.1 409.5 291.8 409.5ZM163.2 406.9C162.9 406.9 162.5 406.8 162.2 406.7C161.6 406.5 161 406.2 160.4 406H160.3C159.6 405.7 158.9 405.4 158.2 405.1C156.4 404.3 154.6 403.6 152.8 402.8C151.8 402.4 151.2 401.4 151.2 400.3C151.2 399.9 151.3 399.5 151.4 399.2C151.8 398.2 152.8 397.6 153.9 397.6C154.3 397.6 154.7 397.7 155 397.8C156.7 398.6 158.5 399.3 160.2 400.1C160.9 400.4 161.6 400.7 162.3 401C163 401.3 163.5 401.5 164.1 401.7C165.1 402.1 165.8 403.1 165.8 404.2C165.8 404.5 165.7 404.9 165.6 405.2C165.3 406.2 164.3 406.9 163.2 406.9ZM310.5 401.9C309.4 401.9 308.5 401.3 308 400.3C307.8 399.9 307.7 399.6 307.7 399.2C307.7 398.2 308.3 397.2 309.2 396.7C309.2 396.7 309.2 396.7 309.3 396.7C312.3 395.3 315.2 393.8 318.1 392.3C318.5 392.1 318.9 392 319.4 392C320.4 392 321.3 392.5 321.8 393.4C322 393.8 322.1 394.2 322.1 394.7C322.1 395.7 321.5 396.6 320.7 397.1C317.7 398.7 314.6 400.2 311.6 401.7C311.3 401.8 310.9 401.9 310.5 401.9ZM144.8 398.6C144.4 398.6 143.9 398.5 143.5 398.3C140.5 396.7 137.5 395.1 134.6 393.4C134.6 393.4 134.6 393.4 134.5 393.4C133.7 392.9 133.2 392 133.2 391.1C133.2 390.6 133.3 390.1 133.6 389.7C134.1 388.9 135 388.4 135.9 388.4C136.4 388.4 136.9 388.5 137.3 388.8C140.1 390.5 143.1 392.1 146 393.6C146.9 394.1 147.5 395 147.5 396C147.5 396.4 147.4 396.8 147.2 397.2C146.7 398 145.8 398.6 144.8 398.6ZM328.2 392.4C327.2 392.4 326.4 391.9 325.9 391.1C325.6 390.7 325.5 390.2 325.5 389.7C325.5 388.7 326 387.9 326.8 387.4C329.6 385.7 332.4 383.9 335.1 382C335.6 381.7 336.1 381.5 336.6 381.5C337.5 381.5 338.3 381.9 338.8 382.7C339.1 383.2 339.3 383.7 339.3 384.3C339.3 385.2 338.9 386 338.1 386.5C335.3 388.4 332.4 390.3 329.5 392.1C329.2 392.2 328.7 392.4 328.2 392.4ZM127.4 388.3C126.9 388.3 126.3 388.1 125.9 387.8C123.1 385.9 120.3 383.9 117.5 381.9C116.8 381.4 116.4 380.6 116.4 379.7C116.4 379.1 116.6 378.5 116.9 378.1C117.4 377.4 118.2 377 119.1 377C119.7 377 120.3 377.2 120.7 377.5C123.3 379.5 126.1 381.4 128.8 383.2C129.6 383.7 130 384.6 130 385.5C130 386 129.8 386.5 129.5 387C129.2 387.9 128.3 388.3 127.4 388.3ZM344.9 381C344 381 343.3 380.6 342.7 379.9C342.3 379.4 342.1 378.8 342.1 378.2C342.1 377.3 342.5 376.6 343.2 376C345.8 374 348.4 371.9 350.9 369.7L351 369.6C351.5 369.2 352.1 369 352.7 369C353.5 369 354.2 369.3 354.8 370C355.2 370.5 355.5 371.1 355.5 371.8C355.5 372.6 355.1 373.3 354.5 373.9C351.9 376.1 349.2 378.3 346.5 380.3C346 380.8 345.5 381 344.9 381ZM111.2 376.3C110.6 376.3 109.9 376.1 109.5 375.7C106.9 373.5 104.3 371.2 101.8 368.9C101.2 368.4 100.9 367.7 100.9 366.9C100.9 366.2 101.2 365.6 101.6 365C102.6 363.9 104.4 363.9 105.4 364.9C107.8 367.1 110.3 369.4 112.9 371.5C113.5 372 113.9 372.8 113.9 373.6C113.9 374.2 113.7 374.8 113.3 375.3C112.8 375.9 112 376.3 111.2 376.3ZM360.2 367.9C359.4 367.9 358.7 367.6 358.2 367.1C357.7 366.6 357.4 365.9 357.4 365.2C357.4 364.4 357.7 363.7 358.2 363.2C360.6 360.9 362.9 358.5 365.2 356.1C365.7 355.5 366.4 355.2 367.2 355.2C367.9 355.2 368.6 355.5 369.1 355.9C369.6 356.4 370 357.1 370 357.9C370 358.6 369.8 359.2 369.3 359.7L369.2 359.8C366.9 362.3 364.5 364.7 362 367C361.6 367.6 360.9 367.9 360.2 367.9ZM96.4001 362.5C95.7001 362.5 95.0001 362.2 94.4001 361.7C92.0001 359.2 89.7001 356.7 87.5001 354.1C87.1001 353.6 86.8001 353 86.8001 352.3C86.8001 351.5 87.1001 350.8 87.7001 350.2C88.2001 349.8 88.8001 349.5 89.5001 349.5C90.3001 349.5 91.0001 349.8 91.6001 350.4C93.8001 352.9 96.0001 355.4 98.3001 357.7C98.8001 358.2 99.1001 358.9 99.1001 359.6C99.1001 360.3 98.8001 361 98.3001 361.5C97.8001 362.2 97.1001 362.5 96.4001 362.5ZM374 353.2C373.4 353.2 372.7 353 372.2 352.6C371.6 352.1 371.2 351.3 371.2 350.5C371.2 349.9 371.4 349.2 371.8 348.7C373.9 346.2 376 343.6 378 340.9C378.5 340.2 379.3 339.8 380.2 339.8C380.8 339.8 381.4 340 381.8 340.4C382.5 340.9 382.9 341.7 382.9 342.6C382.9 343.2 382.7 343.8 382.3 344.3C380.3 347 378.1 349.7 375.9 352.3C375.6 352.8 374.8 353.2 374 353.2ZM83.2001 347.3C82.4001 347.3 81.6001 346.9 81.1001 346.3C80.8001 345.9 80.5001 345.6 80.2001 345.2C78.4001 342.9 76.7001 340.5 75.0001 338.1C74.7001 337.6 74.5001 337.1 74.5001 336.6C74.5001 335.7 74.9001 334.9 75.7001 334.4C76.2001 334.1 76.7001 333.9 77.3001 333.9C78.2001 333.9 79.0001 334.3 79.5001 335.1C81.1001 337.4 82.8001 339.8 84.6001 342C84.9001 342.4 85.2001 342.7 85.4001 343.1C85.8001 343.6 86.0001 344.2 86.0001 344.8C86.0001 345.6 85.6001 346.4 85.0001 346.9C84.4001 347.1 83.8001 347.3 83.2001 347.3ZM386.2 337.1C385.7 337.1 385.1 336.9 384.7 336.6C384 336.1 383.5 335.2 383.5 334.3C383.5 333.8 383.7 333.2 384 332.8C385.9 330.1 387.7 327.2 389.4 324.4C389.9 323.6 390.8 323.1 391.7 323.1C392.2 323.1 392.7 323.2 393.1 323.5C393.9 324 394.4 324.9 394.4 325.8C394.4 326.3 394.3 326.8 394 327.2C392.3 330.1 390.4 333 388.5 335.8V335.9C388 336.6 387.1 337.1 386.2 337.1ZM71.7001 330.7C70.7001 330.7 69.9001 330.2 69.4001 329.4C67.6001 326.5 65.9001 323.5 64.2001 320.5C64.0001 320.1 63.9001 319.7 63.9001 319.2C63.9001 318.2 64.4001 317.3 65.3001 316.8C65.7001 316.6 66.1001 316.5 66.6001 316.5C67.6001 316.5 68.5001 317 69.0001 317.9C70.6001 320.8 72.3001 323.7 74.0001 326.5C74.3001 326.9 74.4001 327.4 74.4001 327.9C74.4001 328.8 73.9001 329.7 73.1001 330.2C72.6001 330.6 72.2001 330.7 71.7001 330.7ZM396.6 319.7C396.2 319.7 395.7 319.6 395.3 319.4C394.4 318.9 393.9 318 393.9 317C393.9 316.6 394 316.1 394.2 315.7C395.7 312.8 397.2 309.8 398.6 306.8C399 305.8 400 305.2 401.1 305.2C401.5 305.2 401.9 305.3 402.2 305.5C403.2 305.9 403.8 306.9 403.8 308C403.8 308.4 403.7 308.8 403.5 309.1C402.1 312.2 400.6 315.2 399 318.2V318.3C398.5 319.2 397.6 319.7 396.6 319.7ZM62.0001 313C61.0001 313 60.0001 312.4 59.5001 311.5C58.0001 308.4 56.6001 305.3 55.3001 302.1C55.2001 301.8 55.1001 301.4 55.1001 301.1C55.1001 300 55.8001 299 56.8001 298.6C57.1001 298.5 57.5001 298.4 57.8001 298.4C58.9001 298.4 59.9001 299.1 60.3001 300.1C61.5001 303.1 62.9001 306.1 64.3001 309.1L64.4001 309.2C64.6001 309.6 64.7001 310 64.7001 310.4C64.7001 311.4 64.1001 312.4 63.2001 312.8C62.8001 312.9 62.4001 313 62.0001 313ZM405.1 301.4C404.8 301.4 404.4 301.3 404.1 301.2C403.1 300.8 402.4 299.8 402.4 298.7C402.4 298.4 402.5 298 402.6 297.7C403.8 294.6 405 291.5 406 288.3C406.4 287.2 407.4 286.4 408.6 286.4C408.9 286.4 409.2 286.4 409.5 286.5C410.6 286.9 411.4 287.9 411.4 289.1C411.4 289.4 411.4 289.7 411.3 290C410.2 293.2 409 296.5 407.8 299.6C407.2 300.7 406.2 301.4 405.1 301.4ZM54.3001 294.3C53.1001 294.3 52.1001 293.6 51.7001 292.5C50.6001 289.3 49.5001 286 48.6001 282.7C48.5001 282.5 48.5001 282.2 48.5001 282C48.5001 280.8 49.3001 279.7 50.5001 279.4C50.7001 279.3 51.0001 279.3 51.3001 279.3C52.5001 279.3 53.6001 280.1 53.9001 281.3C54.8001 284.4 55.8001 287.5 56.9001 290.6L57.0001 290.8C57.1001 291.1 57.2001 291.4 57.2001 291.7C57.2001 292.9 56.5001 293.9 55.4001 294.3C54.9001 294.3 54.6001 294.3 54.3001 294.3ZM411.5 282.2C411.3 282.2 411 282.2 410.8 282.1C409.6 281.8 408.8 280.7 408.8 279.5C408.8 279.3 408.8 279 408.9 278.8C409.8 275.6 410.6 272.4 411.3 269.1L411.4 268.7V268.8C411.8 267.5 413.2 266.7 414.6 267C415.8 267.3 416.7 268.4 416.7 269.7C416.7 269.9 416.7 270.1 416.6 270.3C415.9 273.6 415.1 277 414.1 280.2C413.8 281.4 412.7 282.2 411.5 282.2ZM48.6001 275C47.3001 275 46.2001 274.1 46.0001 272.9C45.2001 269.6 44.5001 266.2 43.9001 262.9C43.9001 262.7 43.9001 262.6 43.9001 262.4C43.9001 261.1 44.8001 260 46.1001 259.7C47.6001 259.4 49.0001 260.4 49.3001 261.9C49.9001 265.1 50.5001 268.3 51.3001 271.5V271.7C51.3001 271.9 51.4001 272.1 51.4001 272.3C51.4001 273.6 50.5001 274.7 49.3001 275C49.0001 274.9 48.8001 275 48.6001 275ZM415.8 262.5C415.7 262.5 415.5 262.5 415.4 262.5C414.1 262.3 413.1 261.2 413.1 259.8C413.1 259.7 413.1 259.5 413.1 259.4C413.6 256.1 414.1 252.8 414.4 249.5C414.6 248 415.9 246.9 417.4 247.1C418.8 247.2 419.8 248.4 419.8 249.8C419.8 249.9 419.8 250 419.8 250.1C419.4 253.5 419 256.9 418.4 260.3C418.3 261.5 417.2 262.5 415.8 262.5ZM45.1001 255.1C43.7001 255.1 42.6001 254.1 42.4001 252.7C42.0001 249.3 41.7001 245.9 41.4001 242.5C41.4001 242.4 41.4001 242.4 41.4001 242.3C41.4001 240.9 42.5001 239.7 43.9001 239.6C45.4001 239.5 46.7001 240.6 46.8001 242.1C47.0001 245.4 47.3001 248.7 47.7001 252C47.7001 252.1 47.7001 252.2 47.7001 252.3C47.7001 253.7 46.7001 254.8 45.3001 255C45.3001 255.1 45.2001 255.1 45.1001 255.1ZM418 242.4H417.9C416.5 242.3 415.3 241.1 415.3 239.7V239.5C415.5 236.2 415.6 232.9 415.6 229.6C415.6 227.9 415.6 226.1 415.5 224.4C415.5 224.4 415.5 224.4 415.5 224.3C415.5 222.8 416.7 221.6 418.1 221.6C419.6 221.6 420.9 222.7 420.9 224.2C420.9 226 421 227.8 421 229.6C421 233 420.9 236.4 420.7 239.8C420.7 239.8 420.7 239.8 420.7 239.9C420.6 241.3 419.4 242.4 418 242.4ZM43.8001 235C42.3001 235 41.1001 233.8 41.1001 232.3C41.1001 231.4 41.1001 230.6 41.1001 229.6C41.1001 227.1 41.1001 224.5 41.2001 222C41.3001 220.5 42.5001 219.3 44.0001 219.4C45.5001 219.5 46.6001 220.7 46.6001 222.1V222.2C46.5001 224.7 46.5001 227.1 46.5001 229.6C46.5001 230.5 46.5001 231.3 46.5001 232.2C46.5001 233.7 45.3001 234.9 43.8001 235ZM417.6 217C416.2 217 415 215.9 414.9 214.5C414.6 211.2 414.3 207.9 413.8 204.6C413.8 204.5 413.8 204.3 413.8 204.2C413.8 202.9 414.8 201.7 416.2 201.5C417.7 201.3 419.1 202.4 419.3 203.8C419.8 207.2 420.1 210.6 420.4 214C420.4 214.1 420.4 214.1 420.4 214.2C420.4 215.6 419.3 216.8 417.9 216.9C417.7 217 417.7 217 417.6 217ZM44.6001 214.8C44.5001 214.8 44.4001 214.8 44.3001 214.8C42.9001 214.7 41.8001 213.5 41.8001 212.1C41.8001 212 41.8001 211.9 41.8001 211.9C42.1001 208.5 42.5001 205.1 43.0001 201.7C43.2001 200.2 44.6001 199.2 46.1001 199.4C47.4001 199.6 48.4001 200.7 48.4001 202.1C48.4001 202.2 48.4001 202.4 48.4001 202.5C47.9001 205.8 47.5001 209.1 47.2001 212.4C47.1001 213.7 46.0001 214.8 44.6001 214.8ZM414.9 197C413.6 197 412.5 196.1 412.2 194.8C411.6 191.6 410.9 188.3 410.1 185.1C410 184.9 410 184.7 410 184.5C410 183.2 410.8 182.2 412.1 181.9C412.3 181.8 412.5 181.8 412.8 181.8C414 181.8 415.1 182.6 415.4 183.8C415.4 183.8 415.4 183.8 415.4 183.9C416.2 187.2 416.9 190.5 417.6 193.8C417.6 194 417.6 194.1 417.6 194.3C417.6 195.6 416.7 196.7 415.4 197C415.2 197 415.1 197 414.9 197ZM47.5001 194.8C47.3001 194.8 47.1001 194.8 47.0001 194.7C45.7001 194.4 44.8001 193.3 44.8001 192C44.8001 191.8 44.8001 191.6 44.9001 191.5C45.6001 188.2 46.4001 184.8 47.2001 181.5C47.5001 180.3 48.6001 179.5 49.8001 179.5C50.0001 179.5 50.3001 179.5 50.5001 179.6C51.7001 179.9 52.5001 181 52.5001 182.2C52.5001 182.4 52.5001 182.7 52.4001 182.9C51.6001 186.1 50.8001 189.3 50.2001 192.5C49.9001 193.9 48.8001 194.8 47.5001 194.8ZM410 177.4C408.8 177.4 407.8 176.6 407.4 175.5C406.4 172.3 405.4 169.2 404.2 166.1C404.1 165.8 404 165.5 404 165.2C404 164.1 404.7 163 405.8 162.6C406.1 162.5 406.4 162.4 406.7 162.4C407.8 162.4 408.9 163.1 409.3 164.2C410.5 167.4 411.6 170.6 412.6 173.9C412.7 174.2 412.7 174.4 412.7 174.7C412.7 175.9 411.9 176.9 410.8 177.3C410.6 177.4 410.3 177.4 410 177.4ZM52.6001 175.3C52.3001 175.3 52.0001 175.3 51.8001 175.2C50.7001 174.8 49.9001 173.8 49.9001 172.6C49.9001 172.3 49.9001 172 50.0001 171.8C51.0001 168.6 52.2001 165.3 53.4001 162.1C53.8001 161.1 54.8001 160.3 55.9001 160.3C56.2001 160.3 56.6001 160.4 56.9001 160.5C57.9001 160.9 58.7001 161.9 58.7001 163C58.7001 163.3 58.6001 163.7 58.5001 164C57.3001 167.1 56.2001 170.2 55.2001 173.4C54.8001 174.5 53.8001 175.3 52.6001 175.3ZM403.1 158.5C402 158.5 401 157.9 400.6 156.9C399.3 153.9 397.9 150.9 396.4 147.9C396.2 147.5 396.1 147.1 396.1 146.7C396.1 145.7 396.7 144.7 397.6 144.3C398 144.1 398.4 144 398.8 144C399.8 144 400.8 144.6 401.2 145.5C402.7 148.5 404.2 151.7 405.5 154.8C405.6 155.1 405.7 155.5 405.7 155.9C405.7 157 405.1 158 404.1 158.4C403.8 158.4 403.5 158.5 403.1 158.5ZM59.8001 156.4C59.4001 156.4 59.0001 156.3 58.7001 156.2C57.7001 155.8 57.1001 154.8 57.1001 153.7C57.1001 153.3 57.2001 153 57.3001 152.6C58.7001 149.5 60.2001 146.4 61.7001 143.3C62.2001 142.4 63.1001 141.8 64.1001 141.8C64.5001 141.8 64.9001 141.9 65.3001 142.1C66.2001 142.6 66.8001 143.5 66.8001 144.5C66.8001 144.9 66.7001 145.3 66.5001 145.7C65.0001 148.6 63.6001 151.7 62.2001 154.7C61.8001 155.8 60.9001 156.4 59.8001 156.4ZM394.1 140.4C393.1 140.4 392.2 139.9 391.7 139C390.1 136.1 388.4 133.3 386.6 130.5C386.3 130.1 386.2 129.6 386.2 129C386.2 128.1 386.7 127.2 387.5 126.7C387.9 126.4 388.4 126.3 389 126.3C389.9 126.3 390.8 126.8 391.3 127.6C393.1 130.4 394.9 133.4 396.5 136.3C396.7 136.7 396.8 137.2 396.8 137.6C396.8 138.6 396.3 139.5 395.4 140C395.1 140.3 394.6 140.4 394.1 140.4ZM69.0001 138.4C68.5001 138.4 68.1001 138.3 67.6001 138C66.8001 137.5 66.2001 136.6 66.2001 135.6C66.2001 135.1 66.3001 134.7 66.6001 134.2C68.3001 131.3 70.1001 128.4 72.0001 125.5L72.1001 125.4C72.6001 124.7 73.4001 124.3 74.3001 124.3C74.8001 124.3 75.3001 124.5 75.8001 124.7C76.6001 125.2 77.0001 126.1 77.0001 127C77.0001 127.5 76.8001 128 76.6001 128.5C74.8001 131.3 73.0001 134.1 71.4001 137C70.9001 137.9 70.0001 138.4 69.0001 138.4ZM383.3 123.4C382.4 123.4 381.6 123 381.1 122.3C379.2 119.6 377.2 117 375.1 114.4C374.7 113.9 374.5 113.3 374.5 112.7C374.5 111.9 374.9 111.1 375.5 110.6C376 110.2 376.6 110 377.2 110C378 110 378.8 110.4 379.3 111C381.4 113.6 383.5 116.4 385.5 119.2C385.8 119.7 386 120.2 386 120.8C386 121.7 385.6 122.5 384.9 123C384.4 123.2 383.9 123.4 383.3 123.4ZM80.1001 121.5C79.5001 121.5 79.0001 121.3 78.5001 121C77.8001 120.5 77.4001 119.7 77.4001 118.8C77.4001 118.2 77.6001 117.7 77.9001 117.3V117.2C79.9001 114.5 82.0001 111.8 84.2001 109.2C84.7001 108.6 85.5001 108.2 86.3001 108.2C86.9001 108.2 87.5001 108.4 88.0001 108.8C88.6001 109.3 89.0001 110.1 89.0001 110.9C89.0001 111.5 88.8001 112.1 88.4001 112.6C86.3001 115.2 84.2001 117.8 82.3001 120.5C81.8001 121.1 80.9001 121.5 80.1001 121.5ZM370.7 107.7C369.9 107.7 369.2 107.4 368.7 106.8C366.5 104.3 364.2 101.9 361.9 99.5999C361.4 99.0999 361.1 98.3999 361.1 97.6999C361.1 96.9999 361.4 96.3 361.9 95.8C362.9 94.8 364.6 94.7999 365.7 95.6999L365.8 95.8C368.2 98.2 370.5 100.7 372.8 103.2C373.2 103.7 373.5 104.3 373.5 105C373.5 105.8 373.2 106.5 372.6 107C372 107.4 371.3 107.7 370.7 107.7ZM92.9001 105.9C92.2001 105.9 91.6001 105.6 91.1001 105.2C90.5001 104.7 90.2001 103.9 90.2001 103.2C90.2001 102.5 90.5001 101.9 90.9001 101.4C93.2001 98.9 95.6001 96.4 98.0001 94C99.0001 93 100.8 93 101.8 94C102.3 94.5 102.6 95.2 102.6 95.9C102.6 96.6 102.3 97.3 101.8 97.8C99.4001 100.1 97.1001 102.5 94.9001 105L94.8001 105.1C94.3001 105.6 93.6001 105.9 92.9001 105.9ZM356.4 93.3C355.7 93.3 355.1 93.0999 354.6 92.5999C352.1 90.3999 349.6 88.1999 347 86.0999C346.4 85.5999 346 84.8 346 84C346 83.4 346.2 82.8 346.6 82.3C347.1 81.7 347.9 81.3 348.7 81.3C349.3 81.3 349.9 81.5 350.4 81.9C353 84 355.7 86.2999 358.2 88.5999C358.8 89.0999 359.1 89.7999 359.1 90.5999C359.1 91.2999 358.9 91.9 358.4 92.4C357.9 93 357.2 93.3 356.4 93.3ZM107.3 91.8C106.5 91.8 105.8 91.5 105.3 90.9C104.9 90.4 104.6 89.7999 104.6 89.0999C104.6 88.2999 104.9 87.5999 105.5 87.0999C108 84.8999 110.7 82.6 113.4 80.5C113.9 80.1 114.5 79.9 115.1 79.9C115.9 79.9 116.7 80.3 117.2 80.9C117.6 81.4 117.8 81.9999 117.8 82.5999C117.8 83.3999 117.4 84.1999 116.8 84.6999C114.2 86.6999 111.6 88.8999 109.2 91.0999C108.6 91.4999 108 91.8 107.3 91.8ZM340.8 80.5999C340.2 80.5999 339.7 80.3999 339.2 80.0999C336.5 78.1999 333.8 76.3 331 74.5C330.2 74 329.8 73.0999 329.8 72.1999C329.8 71.6999 330 71.1999 330.2 70.6999C330.7 69.8999 331.6 69.5 332.5 69.5C333 69.5 333.5 69.6 334 69.9C336.9 71.7 339.7 73.6999 342.5 75.6999C343.2 76.1999 343.6 77 343.6 77.9C343.6 78.5 343.4 79 343.1 79.5C342.4 80.2 341.6 80.5999 340.8 80.5999ZM123.1 79.3C122.2 79.3 121.4 78.8999 120.9 78.0999C120.6 77.5999 120.4 77.1 120.4 76.5C120.4 75.6 120.8 74.8 121.6 74.3C124.4 72.3 127.2 70.3999 130.1 68.5999C130.5 68.2999 131 68.1999 131.5 68.1999C132.4 68.1999 133.3 68.7 133.8 69.5C134.1 69.9 134.2 70.4 134.2 70.9C134.2 71.8 133.7 72.6999 132.9 73.1999C130.1 74.8999 127.3 76.7999 124.7 78.6999C124.2 79.0999 123.7 79.3 123.1 79.3ZM323.8 69.6999C323.3 69.6999 322.9 69.6 322.5 69.3C319.6 67.7 316.7 66.0999 313.7 64.5999C312.8 64.0999 312.2 63.2 312.2 62.2C312.2 61.8 312.3 61.4 312.5 61C313 60.1 313.9 59.5 314.9 59.5C315.3 59.5 315.7 59.5999 316.1 59.7999C319.1 61.2999 322.2 62.9999 325.1 64.5999C325.9 65.0999 326.5 66 326.5 67C326.5 67.5 326.4 67.9 326.1 68.4C325.7 69.2 324.8 69.6999 323.8 69.6999ZM140.2 68.5C139.2 68.5 138.3 67.9999 137.8 67.0999C137.6 66.6999 137.5 66.2 137.5 65.8C137.5 64.8 138 63.9 138.9 63.4C141.9 61.8 144.9 60.2 147.9 58.7L148.1 58.5999C148.4 58.4999 148.8 58.4 149.1 58.4C150.1 58.4 151.1 59 151.5 59.9C151.7 60.3 151.8 60.6999 151.8 61.0999C151.8 62.0999 151.3 63 150.4 63.5L150.2 63.5999C147.2 64.9999 144.3 66.5999 141.4 68.1999C141.1 68.3999 140.7 68.5 140.2 68.5ZM305.7 60.5999C305.3 60.5999 305 60.5 304.6 60.4C301.6 59.1 298.5 57.8 295.4 56.7C294.3 56.3 293.6 55.2999 293.6 54.0999C293.6 53.7999 293.7 53.5 293.8 53.2C294.2 52.1 295.2 51.4 296.3 51.4C296.6 51.4 296.9 51.4999 297.2 51.5999C300.4 52.7999 303.6 54.1 306.7 55.4C307.7 55.8 308.3 56.8 308.3 57.9C308.3 58.3 308.2 58.6 308.1 59C307.8 60 306.8 60.5999 305.7 60.5999ZM158.3 59.7C157.2 59.7 156.2 59 155.8 58C155.7 57.7 155.6 57.3 155.6 56.9C155.6 55.8 156.3 54.8 157.3 54.4C160.4 53.1 163.6 51.8 166.8 50.7C167.1 50.6 167.4 50.5 167.7 50.5C168.8 50.5 169.9 51.1999 170.3 52.2999C170.4 52.5999 170.5 52.9 170.5 53.2C170.5 54.4 169.8 55.3999 168.7 55.7999C165.6 56.8999 162.5 58.1 159.5 59.4C159.1 59.6 158.7 59.7 158.3 59.7ZM286.8 53.5999C286.5 53.5999 286.3 53.6 286 53.5C282.8 52.5 279.6 51.5999 276.4 50.7999C275.2 50.4999 274.4 49.4 274.4 48.2C274.4 48 274.4 47.7 274.5 47.5C274.8 46.3 275.9 45.4 277.1 45.4C277.3 45.4 277.5 45.4 277.8 45.5C281.1 46.3 284.4 47.2999 287.7 48.2999C288.8 48.6999 289.6 49.7 289.6 50.9C289.6 51.2 289.6 51.4 289.5 51.7C289 52.8 288 53.5999 286.8 53.5999ZM177.3 52.9C176.1 52.9 175 52.1 174.7 51C174.6 50.7 174.6 50.5 174.6 50.2C174.6 49 175.4 47.8999 176.5 47.5999C179.8 46.5999 183.1 45.7 186.4 44.9C186.6 44.8 186.8 44.7999 187 44.7999C188.3 44.7999 189.3 45.7 189.6 46.9C189.7 47.1 189.7 47.3 189.7 47.5C189.7 48.8 188.8 49.7999 187.6 50.0999C184.4 50.8999 181.3 51.6999 178.1 52.5999H178C177.8 52.8999 177.6 52.9 177.3 52.9ZM267.2 48.5999C267 48.5999 266.8 48.6 266.7 48.5C263.5 47.9 260.2 47.3 256.9 46.9C255.6 46.7 254.6 45.6 254.6 44.2C254.6 44.1 254.6 43.8999 254.6 43.7999C254.8 42.2999 256.2 41.3 257.7 41.5C261.1 42 264.4 42.5 267.8 43.2L268.1 43.2999H268C269.1 43.6999 269.9 44.7 269.9 45.9C269.9 46.1 269.9 46.2 269.8 46.4C269.6 47.7 268.5 48.5999 267.2 48.5999ZM196.9 48.2C195.6 48.2 194.5 47.3 194.2 46C194.2 45.8 194.2 45.7 194.2 45.5C194.2 44.2 195.1 43.0999 196.4 42.7999C199.7 42.1999 203.2 41.7 206.5 41.2C208 41 209.4 42.0999 209.5 43.5999C209.5 43.6999 209.5 43.8 209.5 43.9C209.5 45.3 208.5 46.3999 207.1 46.5999C203.8 46.9999 200.5 47.4999 197.3 48.0999C197.2 48.1999 197.1 48.2 196.9 48.2ZM247.2 45.7999C247.1 45.7999 247 45.7999 247 45.7999C243.7 45.4999 240.4 45.3 237.1 45.2C235.6 45.2 234.5 44 234.5 42.5V42.4C234.5 40.9 235.8 39.6999 237.3 39.7999C240.7 39.8999 244.1 40.1 247.5 40.4C248.9 40.5 250 41.6999 250 43.0999C250 43.1999 250 43.2999 250 43.2999C249.8 44.6999 248.6 45.7999 247.2 45.7999ZM217 45.5999C215.6 45.5999 214.4 44.4999 214.3 43.0999C214.3 42.9999 214.3 43 214.3 42.9C214.3 41.5 215.4 40.3 216.8 40.2C216.8 40.2 216.8 40.2 216.9 40.2C220.3 40 223.7 39.8 227.1 39.7C227.1 39.7 227.1 39.7 227.2 39.7C228.7 39.7 229.9 40.9 229.9 42.4C229.9 42.4 229.9 42.4 229.9 42.5C229.9 44 228.7 45.2 227.2 45.2C223.9 45.3 220.6 45.4 217.3 45.7C217.1 45.6 217 45.5999 217 45.5999Z" fill="#F8DEC0"/>
<path d="M357.7 51.5C351 51.5 345.5 46 345.5 39.3C345.5 32.6 350.9 27 357.7 27C364.5 27 369.9 32.5 369.9 39.2C369.9 45.9 364.4 51.5 357.7 51.5ZM357.7 30.9C353.1 30.9 349.3 34.6 349.3 39.3C349.3 44 353 47.7 357.7 47.7C362.4 47.7 366.1 44 366.1 39.3C366.1 34.6 362.3 30.9 357.7 30.9Z" fill="#3F2241"/>
<path d="M436 345.4C431.2 345.4 427.3 341.5 427.3 336.7C427.3 331.9 431.2 328 436 328C440.8 328 444.7 331.9 444.7 336.7C444.7 341.5 440.8 345.4 436 345.4ZM436 330.3C432.5 330.3 429.6 333.2 429.6 336.7C429.6 340.2 432.5 343.1 436 343.1C439.5 343.1 442.4 340.2 442.4 336.7C442.4 333.2 439.5 330.3 436 330.3Z" fill="#3F2241"/>
<path d="M112.7 417.8C106 417.8 100.5 412.3 100.5 405.6C100.5 398.9 106 393.4 112.7 393.4C119.4 393.4 124.9 398.9 124.9 405.6C124.9 412.3 119.5 417.8 112.7 417.8ZM112.7 397.2C108.1 397.2 104.3 400.9 104.3 405.6C104.3 410.2 108 414 112.7 414C117.3 414 121.1 410.3 121.1 405.6C121.1 400.9 117.3 397.2 112.7 397.2Z" fill="#3F2241"/>
<path d="M135.5 33.0999C135 33.0999 134.6 32.6999 134.6 32.1999V29.7999C134.6 29.2999 135 28.8999 135.5 28.8999C136 28.8999 136.4 29.2999 136.4 29.7999V32.1999C136.4 32.6999 136 33.0999 135.5 33.0999Z" fill="#3F2241"/>
<path d="M135.5 39.9998C135 39.9998 134.6 39.5998 134.6 39.0998V36.6998C134.6 36.1998 135 35.7998 135.5 35.7998C136 35.7998 136.4 36.1998 136.4 36.6998V39.0998C136.4 39.5998 136 39.9998 135.5 39.9998Z" fill="#3F2241"/>
<path d="M141.3 34.4999C141.3 33.9999 140.9 33.5999 140.4 33.5999H138C137.5 33.5999 137.1 33.9999 137.1 34.4999C137.1 34.9999 137.5 35.3999 138 35.3999H140.4C140.9 35.2999 141.3 34.8999 141.3 34.4999Z" fill="#3F2241"/>
<path d="M134 34.4999C134 33.9999 133.6 33.5999 133.1 33.5999H130.7C130.2 33.5999 129.8 33.9999 129.8 34.4999C129.8 34.9999 130.2 35.3999 130.7 35.3999H133.1C133.6 35.2999 134 34.8999 134 34.4999Z" fill="#3F2241"/>
<path d="M383.3 65.2C382.9 65.2 382.5 64.9 382.5 64.4V62.3C382.5 61.9 382.8 61.5 383.3 61.5C383.7 61.5 384.1 61.8 384.1 62.3V64.4C384.1 64.8 383.7 65.2 383.3 65.2Z" fill="#3F2241"/>
<path d="M383.3 71.2C382.9 71.2 382.5 70.9 382.5 70.4V68.3C382.5 67.9 382.8 67.5 383.3 67.5C383.7 67.5 384.1 67.8 384.1 68.3V70.4C384.1 70.8 383.7 71.2 383.3 71.2Z" fill="#3F2241"/>
<path d="M388.3 66.4001C388.3 66.0001 388 65.6001 387.5 65.6001H385.4C385 65.6001 384.6 65.9001 384.6 66.4001C384.6 66.8001 384.9 67.2001 385.4 67.2001H387.5C388 67.1001 388.3 66.8001 388.3 66.4001Z" fill="#3F2241"/>
<path d="M382 66.4001C382 66.0001 381.7 65.6001 381.2 65.6001H379.1C378.7 65.6001 378.3 65.9001 378.3 66.4001C378.3 66.8001 378.6 67.2001 379.1 67.2001H381.2C381.7 67.1001 382 66.8001 382 66.4001Z" fill="#3F2241"/>
<path d="M116.8 10.9001C116 10.9001 115.4 10.3001 115.4 9.5001V5.5001C115.4 4.7001 116 4.1001 116.8 4.1001C117.6 4.1001 118.2 4.7001 118.2 5.5001V9.5001C118.2 10.3001 117.6 10.9001 116.8 10.9001Z" fill="#3F2241"/>
<path d="M116.8 22.2001C116 22.2001 115.4 21.6001 115.4 20.8001V16.8001C115.4 16.0001 116 15.4001 116.8 15.4001C117.6 15.4001 118.2 16.0001 118.2 16.8001V20.8001C118.2 21.5001 117.6 22.2001 116.8 22.2001Z" fill="#3F2241"/>
<path d="M126.2 13.2C126.2 12.4 125.6 11.8 124.8 11.8H120.8C120 11.8 119.4 12.4 119.4 13.2C119.4 14 120 14.6 120.8 14.6H124.8C125.5 14.6 126.2 13.9 126.2 13.2Z" fill="#3F2241"/>
<path d="M114.3 13.2C114.3 12.4 113.7 11.8 112.9 11.8H108.9C108.1 11.8 107.5 12.4 107.5 13.2C107.5 14 108.1 14.6 108.9 14.6H112.9C113.6 14.6 114.3 13.9 114.3 13.2Z" fill="#3F2241"/>
<path d="M46.9997 398.5C45.4997 398.5 44.1997 397.3 44.1997 395.7V388C44.1997 386.5 45.3997 385.2 46.9997 385.2C48.4997 385.2 49.7997 386.4 49.7997 388V395.7C49.6997 397.3 48.4997 398.5 46.9997 398.5Z" fill="#3F2241"/>
<path d="M46.9997 420.2C45.4997 420.2 44.1997 419 44.1997 417.4V409.7C44.1997 408.2 45.3997 406.9 46.9997 406.9C48.4997 406.9 49.7997 408.1 49.7997 409.7V417.4C49.6997 419 48.4997 420.2 46.9997 420.2Z" fill="#3F2241"/>
<path d="M65.1999 402.8C65.1999 401.3 63.9999 400 62.3999 400H54.6999C53.1999 400 51.8999 401.2 51.8999 402.8C51.8999 404.3 53.0999 405.6 54.6999 405.6H62.3999C63.8999 405.5 65.1999 404.3 65.1999 402.8Z" fill="#3F2241"/>
<path d="M42.1999 402.8C42.1999 401.3 40.9999 400 39.3999 400H31.6999C30.1999 400 28.8999 401.2 28.8999 402.8C28.8999 404.3 30.0999 405.6 31.6999 405.6H39.3999C40.8999 405.5 42.1999 404.3 42.1999 402.8Z" fill="#3F2241"/>
<path d="M142.6 426.3C142.6 429.6 139.9 432.3 136.6 432.3C133.3 432.3 130.6 429.6 130.6 426.3C130.6 423 133.3 420.3 136.6 420.3C139.9 420.2 142.6 422.9 142.6 426.3Z" fill="white"/>
<path d="M136.6 433.4C132.6 433.4 129.4 430.2 129.4 426.2C129.4 422.2 132.6 419 136.6 419C140.6 419 143.8 422.2 143.8 426.2C143.8 430.2 140.5 433.4 136.6 433.4ZM136.6 421.4C133.9 421.4 131.7 423.6 131.7 426.3C131.7 429 133.9 431.2 136.6 431.2C139.3 431.2 141.5 429 141.5 426.3C141.5 423.6 139.2 421.4 136.6 421.4Z" fill="#3F2241"/>
<path d="M19.5002 157.4C18.5002 157.4 17.7002 156.6 17.7002 155.6V150.6C17.7002 149.6 18.5002 148.8 19.5002 148.8C20.5002 148.8 21.3002 149.6 21.3002 150.6V155.6C21.3002 156.6 20.5002 157.4 19.5002 157.4Z" fill="#3F2241"/>
<path d="M19.5002 171.5C18.5002 171.5 17.7002 170.7 17.7002 169.7V164.7C17.7002 163.7 18.5002 162.9 19.5002 162.9C20.5002 162.9 21.3002 163.7 21.3002 164.7V169.7C21.3002 170.7 20.5002 171.5 19.5002 171.5Z" fill="#3F2241"/>
<path d="M31.3002 160.2C31.3002 159.2 30.5002 158.4 29.5002 158.4H24.5002C23.5002 158.4 22.7002 159.2 22.7002 160.2C22.7002 161.2 23.5002 162 24.5002 162H29.5002C30.5002 162 31.3002 161.2 31.3002 160.2Z" fill="#3F2241"/>
<path d="M16.3002 160.2C16.3002 159.2 15.5002 158.4 14.5002 158.4H9.5002C8.5002 158.4 7.7002 159.2 7.7002 160.2C7.7002 161.2 8.5002 162 9.5002 162H14.5002C15.5002 162 16.3002 161.2 16.3002 160.2Z" fill="#3F2241"/>
<g opacity="0.1">
<path opacity="0.1" d="M245.107 200.091L164.971 203.315L165.292 211.309L245.428 208.085L245.107 200.091Z" fill="#3F2241"/>
</g>
<g opacity="0.1">
<path opacity="0.1" d="M250.608 229.89L170.472 233.115L170.793 241.109L250.929 237.884L250.608 229.89Z" fill="#3F2241"/>
</g>
<path d="M158.4 173.5L172.5 266.3H261L287.1 173.5H158.4Z" fill="#F8DEC0"/>
<path d="M269.7 238C269.5 238 269.2 238 269 237.9C267.7 237.5 266.9 236.1 267.3 234.8L268.9 229.2C269.3 227.9 270.7 227.1 272 227.5C273.3 227.9 274.1 229.3 273.7 230.6L272.1 236.2C271.8 237.3 270.8 238 269.7 238Z" fill="#3F2241"/>
<path d="M262.9 268.8H170.4L168.8 258C168.6 256.6 169.5 255.4 170.9 255.2C172.3 255 173.5 255.9 173.7 257.3L174.7 263.9H259.1L264.8 243.8C265.2 242.5 266.6 241.7 267.9 242.1C269.2 242.5 270 243.9 269.6 245.2L262.9 268.8Z" fill="#3F2241"/>
<path d="M168.9 245C167.7 245 166.6 244.1 166.4 242.9L159.4 197.1C159.2 195.7 160.1 194.5 161.5 194.3C162.9 194.1 164.1 195 164.3 196.4L171.3 242.2C171.5 243.6 170.6 244.8 169.2 245C169.1 245 169 245 168.9 245Z" fill="#3F2241"/>
<path d="M275 222.4C274.8 222.4 274.6 222.4 274.4 222.3C273.1 222 272.3 220.6 272.6 219.2L283.9 176H161.3L162.3 182.7C162.5 184.1 161.6 185.3 160.2 185.5C158.8 185.7 157.6 184.8 157.4 183.4L155.5 170.9H290.3L277.4 220.4C277.1 221.7 276.1 222.4 275 222.4Z" fill="#3F2241"/>
<path d="M230.1 202.6H162.5C161.1 202.6 160 201.5 160 200.1C160 198.7 161.1 197.6 162.5 197.6H230.1C231.5 197.6 232.6 198.7 232.6 200.1C232.6 201.5 231.4 202.6 230.1 202.6Z" fill="#3F2241"/>
<path d="M241.7 202.6H236.9C235.5 202.6 234.4 201.5 234.4 200.1C234.4 198.7 235.5 197.6 236.9 197.6H241.7C243.1 197.6 244.2 198.7 244.2 200.1C244.2 201.5 243.1 202.6 241.7 202.6Z" fill="#3F2241"/>
<path d="M236.8 235.2H167.4C166 235.2 164.9 234.1 164.9 232.7C164.9 231.3 166 230.2 167.4 230.2H236.8C238.2 230.2 239.3 231.3 239.3 232.7C239.3 234.1 238.2 235.2 236.8 235.2Z" fill="#3F2241"/>
<path d="M159.3 181.7C158.1 181.7 157 180.8 156.8 179.6L148.7 128H103.2C101.8 128 100.7 126.9 100.7 125.5C100.7 124.1 101.8 123 103.2 123H153L161.8 178.8C162 180.2 161.1 181.4 159.7 181.7C159.5 181.6 159.4 181.7 159.3 181.7Z" fill="#3F2241"/>
<path d="M176.7 309.2L170 266.7C169.8 265.3 170.7 264.1 172.1 263.8C173.5 263.6 174.7 264.5 175 265.9L180.9 303.5L259.3 292.2C260.7 292 261.9 293 262.1 294.3C262.3 295.7 261.3 296.9 260 297.1L176.7 309.2Z" fill="#3F2241"/>
<path d="M172.5 344.5C183.38 344.5 192.2 335.68 192.2 324.8C192.2 313.92 183.38 305.1 172.5 305.1C161.62 305.1 152.8 313.92 152.8 324.8C152.8 335.68 161.62 344.5 172.5 344.5Z" fill="#F8DEC0"/>
<path d="M172.5 346.9C160.3 346.9 150.3 337 150.3 324.7C150.3 312.5 160.2 302.5 172.5 302.5C184.7 302.5 194.7 312.4 194.7 324.7C194.7 337 184.7 346.9 172.5 346.9ZM172.5 307.6C163 307.6 155.3 315.3 155.3 324.8C155.3 334.3 163 342 172.5 342C182 342 189.7 334.3 189.7 324.8C189.7 315.3 182 307.6 172.5 307.6Z" fill="#3F2241"/>
<path d="M263.2 344.5C274.08 344.5 282.9 335.68 282.9 324.8C282.9 313.92 274.08 305.1 263.2 305.1C252.32 305.1 243.5 313.92 243.5 324.8C243.5 335.68 252.32 344.5 263.2 344.5Z" fill="#F8DEC0"/>
<path d="M263.2 346.9C251 346.9 241 337 241 324.7C241 312.5 250.9 302.5 263.2 302.5C275.4 302.5 285.4 312.4 285.4 324.7C285.4 337 275.4 346.9 263.2 346.9ZM263.2 307.6C253.7 307.6 246 315.3 246 324.8C246 334.3 253.7 342 263.2 342C272.7 342 280.4 334.3 280.4 324.8C280.4 315.3 272.7 307.6 263.2 307.6Z" fill="#3F2241"/>
<path d="M225.2 349.5H146.9C145.5 349.5 144.4 348.4 144.4 347C144.4 345.6 145.5 344.5 146.9 344.5H225.2C226.6 344.5 227.7 345.6 227.7 347C227.7 348.3 226.5 349.5 225.2 349.5Z" fill="#3F2241"/>
<path d="M238.8 349.5H233.3C231.9 349.5 230.8 348.4 230.8 347C230.8 345.6 231.9 344.5 233.3 344.5H238.8C240.2 344.5 241.3 345.6 241.3 347C241.3 348.3 240.2 349.5 238.8 349.5Z" fill="#3F2241"/>
<path d="M282.9 349.5H249.2C247.8 349.5 246.7 348.4 246.7 347C246.7 345.6 247.8 344.5 249.2 344.5H282.9C284.3 344.5 285.4 345.6 285.4 347C285.4 348.3 284.2 349.5 282.9 349.5Z" fill="#3F2241"/>
<path d="M192.2 359.6H132.8C131.4 359.6 130.3 358.5 130.3 357.1C130.3 355.7 131.4 354.6 132.8 354.6H192.2C193.6 354.6 194.7 355.7 194.7 357.1C194.7 358.5 193.6 359.6 192.2 359.6Z" fill="#3F2241"/>
<path d="M256.1 158.2C249.1 158.5 247.5 165.8 247.5 165.8V278.9C243.7 284.4 238.2 286.1 234.3 286.5H325.4C332.4 286.2 334 278.9 334 278.9V165.8C337.8 160.3 343.3 158.6 347.2 158.2H256.1V158.2Z" fill="white"/>
<path d="M226.2 275.5H248.5V277.1C248.5 277.1 244.3 285.8 230 285.8C230 285.8 225.1 282.1 226.2 275.5Z" fill="white"/>
<path d="M355.2 168.3C355.2 168.3 356.2 160.3 350 158.7C350 158.7 340.4 156.7 334.1 165.9V168.3H355.2Z" fill="white"/>
<path d="M302 159.7H298.4C297.6 159.7 296.9 159 296.9 158.2C296.9 157.4 297.6 156.7 298.4 156.7H302C302.8 156.7 303.5 157.4 303.5 158.2C303.5 159 302.8 159.7 302 159.7Z" fill="#3F2241"/>
<path d="M325.4 288H234.3L234.2 285C234.3 285 242.8 284.6 246 277.9V246.5C246 245.7 246.7 245 247.5 245C248.3 245 249 245.7 249 246.5V278.6L248.9 278.9C247.7 281.8 245.7 283.7 243.6 285.1H325.4C331.3 285.1 332.4 279.8 332.5 278.9L332.6 165.5L332.8 165.1C334.4 162.7 336.2 161 338.1 159.8H307.7C306.9 159.8 306.2 159.1 306.2 158.3C306.2 157.5 306.9 156.8 307.7 156.8H347.2V159.8C346.9 159.8 340.1 159.9 335.6 166.4L335.5 279V279.1C335.1 282.1 332.5 288 325.4 288Z" fill="#3F2241"/>
<path d="M247.5 241.1C246.7 241.1 246 240.4 246 239.6V236.6C246 235.8 246.7 235.1 247.5 235.1C248.3 235.1 249 235.8 249 236.6V239.6C249 240.4 248.3 241.1 247.5 241.1Z" fill="#3F2241"/>
<path d="M247.5 232.2C246.7 232.2 246 231.5 246 230.7V165.7V165.6C246.4 162.9 249 157.5 255.9 156.7H256.1H293.9C294.7 156.7 295.4 157.4 295.4 158.2C295.4 159 294.7 159.7 293.9 159.7H256.2C250.3 160.4 249.1 165.2 249 165.9V230.7C249 231.5 248.3 232.2 247.5 232.2Z" fill="#3F2241"/>
<path d="M356.4 169.8H334.1C333.3 169.8 332.6 169.1 332.6 168.3C332.6 167.5 333.3 166.8 334.1 166.8H353.9C354 165.6 353.9 163.7 352.8 162.2C351.7 160.7 349.8 159.9 347.1 159.7C346.3 159.6 345.6 158.9 345.7 158.1C345.8 157.3 346.5 156.6 347.3 156.7C350.9 156.9 353.6 158.2 355.2 160.4C357.8 163.9 356.7 168.5 356.6 168.6L356.4 169.8Z" fill="#3F2241"/>
<path d="M234.1 288C233.1 288 229.8 287.8 227.4 285.3C225.2 283.1 224.4 279.8 224.8 275.4L224.9 274H247.2C248 274 248.7 274.7 248.7 275.5C248.7 276.3 248 277 247.2 277H227.7C227.6 279.7 228.3 281.8 229.6 283.1C231.5 285 234.2 284.9 234.3 284.9C235.1 284.8 235.8 285.5 235.9 286.3C236 287.1 235.3 287.8 234.5 287.9C234.4 288 234.3 288 234.1 288Z" fill="#3F2241"/>
<path d="M311.1 154.2H284.6C283.8 154.2 283.1 153.5 283.1 152.7C283.1 151.9 283.8 151.2 284.6 151.2H311.1C311.9 151.2 312.6 151.9 312.6 152.7C312.6 153.5 312 154.2 311.1 154.2Z" fill="#3F2241"/>
<path d="M318.1 154.2H315.7C314.9 154.2 314.2 153.5 314.2 152.7C314.2 151.9 314.9 151.2 315.7 151.2H318.1C318.9 151.2 319.6 151.9 319.6 152.7C319.6 153.5 318.9 154.2 318.1 154.2Z" fill="#3F2241"/>
<path d="M275.2 154.2H265.8C265 154.2 264.3 153.5 264.3 152.7C264.3 151.9 265 151.2 265.8 151.2H275.2C276 151.2 276.7 151.9 276.7 152.7C276.7 153.5 276.1 154.2 275.2 154.2Z" fill="#3F2241"/>
<path d="M265.9 186.9H258.2C256.7 186.9 255.5 185.7 255.5 184.2V176.5C255.5 175 256.7 173.8 258.2 173.8H265.9C267.4 173.8 268.6 175 268.6 176.5V184.2C268.6 185.7 267.4 186.9 265.9 186.9ZM258.3 176.3C258.2 176.3 258 176.4 258 176.6V184.3C258 184.4 258.1 184.6 258.3 184.6H266C266.1 184.6 266.3 184.5 266.3 184.3V176.6C266.3 176.5 266.2 176.3 266 176.3H258.3Z" fill="#3F2241"/>
<path d="M265.9 207.7H258.2C256.7 207.7 255.5 206.5 255.5 205V197.3C255.5 195.8 256.7 194.6 258.2 194.6H265.9C267.4 194.6 268.6 195.8 268.6 197.3V205C268.6 206.5 267.4 207.7 265.9 207.7ZM258.3 197.1C258.2 197.1 258 197.2 258 197.4V205.1C258 205.2 258.1 205.4 258.3 205.4H266C266.1 205.4 266.3 205.3 266.3 205.1V197.4C266.3 197.3 266.2 197.1 266 197.1H258.3Z" fill="#3F2241"/>
<path d="M265.9 229.7H258.2C256.7 229.7 255.5 228.5 255.5 227V219.3C255.5 217.8 256.7 216.6 258.2 216.6H265.9C267.4 216.6 268.6 217.8 268.6 219.3V227C268.6 228.5 267.4 229.7 265.9 229.7ZM258.3 219.1C258.2 219.1 258 219.2 258 219.4V227.1C258 227.2 258.1 227.4 258.3 227.4H266C266.1 227.4 266.3 227.3 266.3 227.1V219.4C266.3 219.3 266.2 219.1 266 219.1H258.3Z" fill="#3F2241"/>
<path d="M265.9 251.7H258.2C256.7 251.7 255.5 250.5 255.5 249V241.3C255.5 239.8 256.7 238.6 258.2 238.6H265.9C267.4 238.6 268.6 239.8 268.6 241.3V249C268.6 250.5 267.4 251.7 265.9 251.7ZM258.3 241.1C258.2 241.1 258 241.2 258 241.4V249.1C258 249.2 258.1 249.4 258.3 249.4H266C266.1 249.4 266.3 249.3 266.3 249.1V241.4C266.3 241.3 266.2 241.1 266 241.1H258.3Z" fill="#3F2241"/>
<path d="M265.9 273.7H258.2C256.7 273.7 255.5 272.5 255.5 271V263.3C255.5 261.8 256.7 260.6 258.2 260.6H265.9C267.4 260.6 268.6 261.8 268.6 263.3V271C268.6 272.5 267.4 273.7 265.9 273.7ZM258.3 263.1C258.2 263.1 258 263.2 258 263.4V271.1C258 271.2 258.1 271.4 258.3 271.4H266C266.1 271.4 266.3 271.3 266.3 271.1V263.4C266.3 263.3 266.2 263.1 266 263.1H258.3Z" fill="#3F2241"/>
<path opacity="0.5" d="M323.7 177.4H276C275.6 177.4 275.3 177.1 275.3 176.7V175.9C275.3 175.5 275.6 175.2 276 175.2H323.7C324.1 175.2 324.4 175.5 324.4 175.9V176.7C324.4 177 324.1 177.4 323.7 177.4Z" fill="#F8DEC0"/>
<path opacity="0.5" d="M323.7 263.7H276C275.6 263.7 275.3 263.4 275.3 263V262.2C275.3 261.8 275.6 261.5 276 261.5H323.7C324.1 261.5 324.4 261.8 324.4 262.2V263C324.4 263.4 324.1 263.7 323.7 263.7Z" fill="#F8DEC0"/>
<path opacity="0.5" d="M323.7 268.3H276C275.6 268.3 275.3 268 275.3 267.6V266.8C275.3 266.4 275.6 266.1 276 266.1H323.7C324.1 266.1 324.4 266.4 324.4 266.8V267.6C324.4 268 324.1 268.3 323.7 268.3Z" fill="#F8DEC0"/>
<path opacity="0.5" d="M323.7 181.5H276C275.6 181.5 275.3 181.2 275.3 180.8V180C275.3 179.6 275.6 179.3 276 179.3H323.7C324.1 179.3 324.4 179.6 324.4 180V180.8C324.4 181.2 324.1 181.5 323.7 181.5Z" fill="#F8DEC0"/>
<path opacity="0.5" d="M323.7 197.6H276C275.6 197.6 275.3 197.3 275.3 196.9V196.1C275.3 195.7 275.6 195.4 276 195.4H323.7C324.1 195.4 324.4 195.7 324.4 196.1V196.9C324.4 197.3 324.1 197.6 323.7 197.6Z" fill="#F8DEC0"/>
<path opacity="0.5" d="M323.7 201.5H276C275.6 201.5 275.3 201.2 275.3 200.8V200C275.3 199.6 275.6 199.3 276 199.3H323.7C324.1 199.3 324.4 199.6 324.4 200V200.8C324.4 201.2 324.1 201.5 323.7 201.5Z" fill="#F8DEC0"/>
<path opacity="0.5" d="M323.7 205.5H276C275.6 205.5 275.3 205.2 275.3 204.8V204C275.3 203.6 275.6 203.3 276 203.3H323.7C324.1 203.3 324.4 203.6 324.4 204V204.8C324.4 205.1 324.1 205.5 323.7 205.5Z" fill="#F8DEC0"/>
<path opacity="0.5" d="M323.7 219.6H276C275.6 219.6 275.3 219.3 275.3 218.9V218C275.3 217.6 275.6 217.3 276 217.3H323.7C324.1 217.3 324.4 217.6 324.4 218V218.8C324.4 219.2 324.1 219.6 323.7 219.6Z" fill="#F8DEC0"/>
<path opacity="0.5" d="M323.7 241.9H276C275.6 241.9 275.3 241.6 275.3 241.2V240.4C275.3 240 275.6 239.7 276 239.7H323.7C324.1 239.7 324.4 240 324.4 240.4V241.2C324.4 241.5 324.1 241.9 323.7 241.9Z" fill="#F8DEC0"/>
<path opacity="0.5" d="M323.7 245.8H276C275.6 245.8 275.3 245.5 275.3 245.1V244.3C275.3 243.9 275.6 243.6 276 243.6H323.7C324.1 243.6 324.4 243.9 324.4 244.3V245.1C324.4 245.5 324.1 245.8 323.7 245.8Z" fill="#F8DEC0"/>
<path opacity="0.5" d="M285.6 249.8H276C275.6 249.8 275.3 249.5 275.3 249.1V248.3C275.3 247.9 275.6 247.6 276 247.6H285.6C286 247.6 286.3 247.9 286.3 248.3V249.1C286.3 249.4 286 249.8 285.6 249.8Z" fill="#F8DEC0"/>
<path opacity="0.5" d="M300.6 223.5H276C275.6 223.5 275.3 223.2 275.3 222.8V222C275.3 221.6 275.6 221.3 276 221.3H300.6C301 221.3 301.3 221.6 301.3 222V222.8C301.3 223.1 301 223.5 300.6 223.5Z" fill="#F8DEC0"/>
<path d="M262.7 184.2L258.9 179.1C258.5 178.6 258.6 177.9 259.1 177.5C259.6 177.1 260.3 177.2 260.7 177.7L262.6 180.2L266 174.9C266.3 174.4 267 174.2 267.6 174.6C268.1 174.9 268.3 175.6 267.9 176.2L262.7 184.2Z" fill="#F8DEC0"/>
<path d="M263.3 204.1L259.5 199C259.1 198.5 259.2 197.8 259.7 197.4C260.2 197 260.9 197.1 261.3 197.6L263.2 200.1L266.6 194.8C266.9 194.3 267.6 194.1 268.2 194.5C268.7 194.8 268.9 195.5 268.5 196.1L263.3 204.1Z" fill="#F8DEC0"/>
<path d="M263.3 226.1L259.5 221C259.1 220.5 259.2 219.8 259.7 219.4C260.2 219 260.9 219.1 261.3 219.6L263.2 222.1L266.6 216.8C266.9 216.3 267.6 216.1 268.2 216.5C268.7 216.8 268.9 217.5 268.5 218.1L263.3 226.1Z" fill="#F8DEC0"/>
<path d="M262.7 248.4L258.9 243.3C258.5 242.8 258.6 242.1 259.1 241.7C259.6 241.3 260.3 241.4 260.7 241.9L262.6 244.4L266 239.1C266.3 238.6 267 238.4 267.6 238.8C268.1 239.1 268.3 239.8 267.9 240.4L262.7 248.4Z" fill="#F8DEC0"/>
<path d="M178.7 110.9C175 110.9 172 107.9 172 104.2C172 100.5 175 97.5 178.7 97.5C182.4 97.5 185.4 100.5 185.4 104.2C185.4 107.9 182.4 110.9 178.7 110.9ZM178.7 99.6C176.1 99.6 174 101.7 174 104.3C174 106.9 176.1 109 178.7 109C181.3 109 183.4 106.9 183.4 104.3C183.4 101.6 181.3 99.6 178.7 99.6Z" fill="#F8DEC0"/>
<path d="M198.8 85.0999C196.8 85.0999 195.2 83.4999 195.2 81.4999C195.2 79.4999 196.8 77.8999 198.8 77.8999C200.8 77.8999 202.4 79.4999 202.4 81.4999C202.4 83.4999 200.7 85.0999 198.8 85.0999ZM198.8 79.9999C197.9 79.9999 197.2 80.6999 197.2 81.5999C197.2 82.4999 197.9 83.1999 198.8 83.1999C199.7 83.1999 200.4 82.4999 200.4 81.5999C200.4 80.6999 199.6 79.9999 198.8 79.9999Z" fill="#F8DEC0"/>
<path d="M186.5 144.9C185.5 144.9 184.6 144.1 184.6 143V137.8C184.6 136.8 185.4 135.9 186.5 135.9C187.5 135.9 188.4 136.7 188.4 137.8V143C188.3 144 187.5 144.9 186.5 144.9Z" fill="#3F2241"/>
<path d="M186.5 159.6C185.5 159.6 184.6 158.8 184.6 157.7V152.5C184.6 151.5 185.4 150.6 186.5 150.6C187.5 150.6 188.4 151.4 188.4 152.5V157.7C188.3 158.8 187.5 159.6 186.5 159.6Z" fill="#3F2241"/>
<path d="M198.8 147.8C198.8 146.8 198 145.9 196.9 145.9H191.7C190.7 145.9 189.8 146.7 189.8 147.8C189.8 148.8 190.6 149.7 191.7 149.7H196.9C197.9 149.6 198.8 148.8 198.8 147.8Z" fill="#3F2241"/>
<path d="M183.2 147.8C183.2 146.8 182.4 145.9 181.3 145.9H176.1C175.1 145.9 174.2 146.7 174.2 147.8C174.2 148.8 175 149.7 176.1 149.7H181.3C182.4 149.6 183.2 148.8 183.2 147.8Z" fill="#3F2241"/>
</g>
<defs>
<clipPath id="clip0">
<rect width="464.1" height="434.3" fill="white"/>
</clipPath>
</defs>
</svg>
